<svg width="32" height="32" viewBox="0 0 100 110.62783564554805" class="looka-1j8o68f"><defs id="SvgjsDefs2920"><linearGradient id="SvgjsLinearGradient2925"><stop id="SvgjsStop2926" stop-color="#00a1ff" offset="0"></stop><stop id="SvgjsStop2927" stop-color="#00ff8f" offset="1"></stop></linearGradient><linearGradient id="SvgjsLinearGradient2928"><stop id="SvgjsStop2929" stop-color="#00a1ff" offset="0"></stop><stop id="SvgjsStop2930" stop-color="#00ff8f" offset="1"></stop></linearGradient></defs><g id="SvgjsG2921" featurekey="symbolFeature-0" transform="matrix(0.5192444745696104,0,0,0.5192444745696104,24.07853239910105,-6.49055593212013)" fill="url(#SvgjsLinearGradient2925)"><path xmlns="http://www.w3.org/2000/svg" fill="url(#SvgjsLinearGradient2925)" d="M84.688,45.312c-1.344,0-2.534,0.745-3.197,1.875h-4.381c-0.679-12.44-6-18.75-15.859-18.75c-2.964,0-4.468,0.502-5.922,0.985c-1.371,0.458-2.667,0.89-5.328,0.89s-3.957-0.432-5.328-0.89c-1.454-0.483-2.958-0.985-5.922-0.985c-9.708,0-15.148,6.471-15.854,18.75h-4.544c-0.665-1.13-1.855-1.875-3.199-1.875c-2.067,0-3.75,1.683-3.75,3.75c0,0.317,0.053,0.628,0.132,0.934c-0.079,0.308-0.132,0.623-0.132,0.941c0,2.067,1.683,3.75,3.75,3.75c1.344,0,2.534-0.745,3.197-1.875h4.546c0.705,12.279,6.146,18.75,15.854,18.75c2.964,0,4.468-0.502,5.922-0.985c1.371-0.458,2.667-0.89,5.328-0.89s3.957,0.432,5.328,0.89c1.454,0.483,2.958,0.985,5.922,0.985c9.708,0,15.148-6.471,15.854-18.75h4.385c0.665,1.128,1.855,1.875,3.199,1.875c2.067,0,3.75-1.683,3.75-3.75c0-0.317-0.053-0.628-0.132-0.934c0.079-0.308,0.132-0.623,0.132-0.941C88.438,46.995,86.755,45.312,84.688,45.312z M17.834,50.938c-0.013,0-0.024,0.007-0.035,0.007c-0.384,0.002-0.745,0.234-0.879,0.619c-0.264,0.747-0.974,1.249-1.767,1.249c-1.035,0-1.875-0.84-1.875-1.875c0-0.216,0.037-0.427,0.108-0.628c0.017-0.046,0.011-0.092,0.02-0.138c0.009-0.057,0.022-0.109,0.022-0.167c0.002-0.075-0.013-0.145-0.029-0.218c-0.009-0.033-0.003-0.068-0.015-0.101c-0.069-0.204-0.106-0.412-0.106-0.625c0-1.035,0.84-1.875,1.875-1.875c0.794,0,1.505,0.503,1.769,1.252c0.136,0.384,0.5,0.617,0.885,0.617c0.011,0,0.018,0.005,0.027,0.005h5.002c-0.005,0.315-0.024,0.615-0.024,0.938s0.019,0.623,0.024,0.938H17.834z M61.25,69.688c-2.661,0-3.957-0.432-5.328-0.89c-1.454-0.483-2.958-0.985-5.922-0.985s-4.468,0.502-5.922,0.985c-1.371,0.458-2.667,0.89-5.328,0.89c-9.331,0-14.062-6.623-14.062-19.688s4.731-19.688,14.062-19.688c2.661,0,3.957,0.432,5.328,0.89c1.454,0.483,2.958,0.985,5.922,0.985s4.468-0.502,5.922-0.985c1.371-0.458,2.667-0.89,5.328-0.89c9.463,0,14.062,6.44,14.062,19.688C75.312,63.064,70.581,69.688,61.25,69.688z M84.688,52.812c-0.795,0-1.505-0.503-1.769-1.252c-0.136-0.384-0.497-0.615-0.883-0.617c-0.011,0-0.019-0.005-0.029-0.005h-4.843c0.005-0.315,0.024-0.615,0.024-0.938s-0.017-0.623-0.022-0.938h4.841c0.013,0,0.024-0.007,0.037-0.007c0.384-0.002,0.742-0.234,0.877-0.619c0.264-0.747,0.974-1.249,1.767-1.249c1.035,0,1.875,0.84,1.875,1.875c0,0.216-0.037,0.427-0.108,0.628c-0.017,0.046-0.011,0.092-0.02,0.138c-0.011,0.057-0.022,0.109-0.022,0.167c-0.001,0.075,0.013,0.145,0.029,0.218c0.008,0.033,0.004,0.066,0.015,0.101c0.07,0.204,0.106,0.412,0.106,0.625C86.562,51.972,85.722,52.812,84.688,52.812z"/><path xmlns="http://www.w3.org/2000/svg" fill="url(#SvgjsLinearGradient2925)" d="M55.625,54.688c-0.518,0-0.938,0.419-0.938,0.938c0,2.585-2.102,4.688-4.688,4.688s-4.688-2.102-4.688-4.688c0-0.519-0.419-0.938-0.938-0.938s-0.938,0.419-0.938,0.938c0,3.615,2.949,6.562,6.562,6.562s6.562-2.948,6.562-6.562C56.562,55.107,56.143,54.688,55.625,54.688z"/></g><g id="SvgjsG2922" featurekey="symbolFeature-1" transform="matrix(1.1258858688458196,0,0,1.1258858688458196,-27.560388760960334,21.844498875224214)" fill="url(#SvgjsLinearGradient2928)"><path xmlns="http://www.w3.org/2000/svg" d="M57.75,71.625c-0.414,0-0.75,0.336-0.75,0.75v6.75c0,0.414,0.336,0.75,0.75,0.75h6.75c0.414,0,0.75-0.336,0.75-0.75s-0.336-0.75-0.75-0.75H58.5v-6C58.5,71.961,58.164,71.625,57.75,71.625z"/></g></svg>